<?xml version="1.0" encoding="utf-8"?>
<!-- Generator: Adobe Illustrator 15.1.0, SVG Export Plug-In  -->
<!DOCTYPE svg PUBLIC "-//W3C//DTD SVG 1.1//EN" "http://www.w3.org/Graphics/SVG/1.1/DTD/svg11.dtd" [
	<!ENTITY ns_flows "http://ns.adobe.com/Flows/1.0/">
]>
<svg version="1.1"
	 xmlns="http://www.w3.org/2000/svg" xmlns:xlink="http://www.w3.org/1999/xlink" xmlns:a="http://ns.adobe.com/AdobeSVGViewerExtensions/3.0/"
	 x="0px" y="0px" width="15px" height="12px" viewBox="0 0 15 12" enable-background="new 0 0 15 12" xml:space="preserve">
<defs>
</defs>
<path fill="#F39321" d="M0,2.212v5.053c0,1.125,1.01,2.057,2.31,2.195v2.202c0,0.179,0.129,0.341,0.326,0.408
	c0.065,0.023,0.134,0.035,0.202,0.035c0.138,0,0.272-0.045,0.374-0.131l2.983-2.497h6.233c1.457,0,2.642-0.993,2.642-2.212V2.212
	C15.07,0.992,13.886,0,12.429,0H2.643C1.186,0,0,0.992,0,2.212 M1.058,2.212c0-0.732,0.711-1.327,1.585-1.327h9.786
	c0.874,0,1.585,0.595,1.585,1.327v5.053c0,0.732-0.711,1.328-1.585,1.328H5.977c-0.14,0-0.274,0.047-0.374,0.129l-2.236,1.873V9.034
	c0-0.244-0.236-0.441-0.527-0.441H2.643c-0.874,0-1.585-0.596-1.585-1.328V2.212z"/>
</svg>
